PathFileType	4	(X/Y/Z)	OpenSim_Sub02_CSBaseline_Magnet.trc
DataRate	CameraRate	NumFrames	NumMarkers	Units	OrigDataRate	OrigDataStartFrame	OrigNumFrames
100	100	30	8	m	100	5293	7057
Frame#	Time	torso_imu_offset_imu	pelvis_imu_offset_imu	tibia_r_imu_offset_imu	femur_r_imu_offset_imu	tibia_l_imu_offset_imu	femur_l_imu_offset_imu	toes_r_imu_offset_imu	toes_l_imu_offset_imu
				X1	Y1	Z1	X2	Y2	Z2	X3	Y3	Z3	X4	Y4	Z4	X5	Y5	Z5	X6	Y6	Z6	X7	Y7	Z7	X8		Y8	Z8	

5293	52.92000000	-0.92454317	-0.16664772	-0.09924219	-0.63671363	0.15698362	-0.63884519	-0.67664311	-0.38130417	-0.15990163	-0.78930046	-0.18962552	0.17159132	-0.30675018	0.75400234	-0.14120797	-0.54574634	0.31279877	0.15517073	-0.63962648	-0.24529003	-0.47377749	-0.76508983	-0.14603056	-0.24461901
5294	52.93000000	-0.92849725	-0.16492404	-0.10384543	-0.63712495	0.16910421	-0.63853312	-0.66827901	-0.40253402	-0.14655119	-0.78913665	-0.19548324	0.17601550	-0.28026060	0.76192897	-0.15575504	-0.55780527	0.30643631	0.15065182	-0.64446562	-0.25006345	-0.46142486	-0.77889179	-0.13551354	-0.19814617
5295	52.94000000	-0.92258445	-0.16292462	-0.10852799	-0.63792710	0.17486631	-0.63723859	-0.65844648	-0.41643579	-0.13611038	-0.79297067	-0.19102064	0.17511763	-0.25931196	0.76939191	-0.16944868	-0.56603243	0.28897181	0.14030364	-0.64528650	-0.25613854	-0.45400280	-0.79178195	-0.13015537	-0.13625025
5296	52.95000000	-0.92719521	-0.15882720	-0.11201249	-0.63957382	0.17927914	-0.64072553	-0.64819244	-0.44240302	-0.11798051	-0.79196182	-0.17498239	0.18726229	-0.23460240	0.77051795	-0.18406103	-0.57717327	0.27683160	0.12562302	-0.64590251	-0.24718461	-0.45301668	-0.79896697	-0.12389347	-0.06373022
5297	52.96000000	-0.92974361	-0.16340945	-0.11609215	-0.64094701	0.17971312	-0.63657584	-0.64180269	-0.45512864	-0.10062297	-0.79181401	-0.16149696	0.20686277	-0.20674754	0.77470950	-0.19439640	-0.59189614	0.26893153	0.11211661	-0.64396232	-0.24313769	-0.45109303	-0.79992471	-0.11755246	0.00587118
5298	52.97000000	-0.92577155	-0.16158713	-0.11925359	-0.64376663	0.18013520	-0.63141356	-0.63566822	-0.46554819	-0.08800185	-0.79251083	-0.15832791	0.22494342	-0.18053484	0.77998544	-0.20379787	-0.60726962	0.25138923	0.10219054	-0.64319589	-0.24287848	-0.44011428	-0.79644050	-0.10238796	0.07779302
5299	52.98000000	-0.92420134	-0.15693446	-0.11285881	-0.64214746	0.17717585	-0.63758361	-0.63160903	-0.46909872	-0.07685214	-0.78862895	-0.16771968	0.23084546	-0.15100360	0.77881694	-0.23198238	-0.61833278	0.23083666	0.08592342	-0.64700776	-0.24948390	-0.44211117	-0.78616780	-0.07874746	0.14069312
5300	52.99000000	-0.92818425	-0.15399941	-0.11470820	-0.64411535	0.17867666	-0.63455973	-0.62685879	-0.47692800	-0.06974786	-0.77903440	-0.17765729	0.23519411	-0.13406284	0.77627757	-0.25257941	-0.63262507	0.20942379	0.07485795	-0.64418106	-0.24637544	-0.44036499	-0.77480570	-0.05862121	0.18978828
5301	53.00000000	-0.92801787	-0.15427333	-0.11213072	-0.64443856	0.17709781	-0.63983106	-0.62367113	-0.48336217	-0.06294844	-0.76398344	-0.19588597	0.24485643	-0.11606020	0.77139478	-0.27125255	-0.64201658	0.19482623	0.06946381	-0.64293647	-0.24391236	-0.43751651	-0.76558367	-0.03476684	0.23653946
5302	53.01000000	-0.93085855	-0.15462994	-0.10691083	-0.64554489	0.17974654	-0.64346050	-0.62409559	-0.48612833	-0.05828806	-0.76748357	-0.20951289	0.24898332	-0.09994652	0.76862273	-0.29132524	-0.64990767	0.17662658	0.06551762	-0.63967943	-0.24486954	-0.44012498	-0.74996108	-0.00756776	0.27985202
5303	53.02000000	-0.93204147	-0.14799725	-0.10748916	-0.63969764	0.17675205	-0.63985713	-0.62350230	-0.49262279	-0.07349925	-0.76269743	-0.21417120	0.25479331	-0.09137432	0.77309928	-0.29008779	-0.65855786	0.15179251	0.06572290	-0.64734804	-0.24814401	-0.43786693	-0.73659994	0.01824464	0.31071910
5304	53.03000000	-0.93362437	-0.14004129	-0.10536269	-0.63851928	0.16929832	-0.64065887	-0.61931636	-0.49532958	-0.09070614	-0.75690338	-0.22225205	0.26139765	-0.07850685	0.77332441	-0.28842359	-0.66923005	0.13633991	0.06549127	-0.64072073	-0.24261202	-0.43221137	-0.72221624	0.03758284	0.33878374
5305	53.04000000	-0.93634403	-0.14593666	-0.10204511	-0.64447758	0.16376109	-0.64151920	-0.61465858	-0.49877078	-0.10126411	-0.75225361	-0.23095777	0.26630514	-0.07646283	0.77073022	-0.28544845	-0.67498038	0.11637091	0.06537773	-0.64090321	-0.24574754	-0.43559299	-0.71234999	0.07266774	0.36020069
5306	53.05000000	-0.93458152	-0.13965325	-0.09427006	-0.64162901	0.15377895	-0.64753422	-0.61347898	-0.50422909	-0.10868693	-0.74978729	-0.23140061	0.27482256	-0.06969779	0.77728863	-0.28546797	-0.67688510	0.10339021	0.08014973	-0.63981928	-0.24372447	-0.43396191	-0.71752287	0.09415455	0.33667416
5307	53.06000000	-0.93330772	-0.13775500	-0.09130008	-0.64321131	0.15196984	-0.64326861	-0.60638144	-0.50602407	-0.11937014	-0.75176593	-0.23149924	0.28147027	-0.06531813	0.77338816	-0.29063749	-0.68513942	0.08125736	0.08770390	-0.64150518	-0.24041115	-0.42601374	-0.72401275	0.10909870	0.30550778
5308	53.07000000	-0.93093825	-0.13953637	-0.09000551	-0.65433547	0.15020781	-0.64543110	-0.60001170	-0.51209984	-0.11931425	-0.74776987	-0.23620022	0.28141821	-0.06209072	0.77435652	-0.28988893	-0.69371015	0.07721306	0.09955506	-0.63831437	-0.24182540	-0.43405341	-0.73641109	0.11797386	0.27993729
5309	53.08000000	-0.93573006	-0.13554972	-0.08045854	-0.65409314	0.14334697	-0.64206167	-0.59887362	-0.51459945	-0.10907822	-0.73654955	-0.24672343	0.28939871	-0.06144617	0.77153735	-0.28842093	-0.69090866	0.06275726	0.11310257	-0.63839477	-0.24211635	-0.43032169	-0.74744424	0.12783886	0.25465848
5310	53.09000000	-0.93730534	-0.13021038	-0.08308316	-0.65336449	0.13650884	-0.63986779	-0.60111189	-0.51409377	-0.10098049	-0.72743654	-0.25455432	0.29473978	-0.06607589	0.77138912	-0.29854647	-0.69007846	0.04976965	0.12094237	-0.64232527	-0.23829424	-0.42808116	-0.75540071	0.13116994	0.22711964
5311	53.10000000	-0.93622363	-0.13252185	-0.07900791	-0.65965738	0.12855473	-0.64127647	-0.59765464	-0.52728062	-0.08906590	-0.73043065	-0.26318309	0.29702034	-0.08056979	0.76253508	-0.30759717	-0.69484668	0.03337106	0.12972013	-0.64524667	-0.24024252	-0.42443615	-0.76307146	0.13277166	0.20170018
5312	53.11000000	-0.93528053	-0.13504832	-0.06919645	-0.65817294	0.12220782	-0.64522313	-0.59348025	-0.53101816	-0.07482416	-0.72946877	-0.27058379	0.30308490	-0.09132933	0.75360459	-0.32112881	-0.70243652	0.02074163	0.13521393	-0.64688152	-0.24359450	-0.42594442	-0.77072518	0.13291417	0.17809180
5313	53.12000000	-0.93688377	-0.13273657	-0.06383678	-0.66533310	0.11690730	-0.64286829	-0.58533453	-0.53382198	-0.07530401	-0.72479810	-0.27756659	0.29405007	-0.11255502	0.74434372	-0.33286680	-0.70327343	0.01380016	0.14560449	-0.64339539	-0.24237099	-0.42604791	-0.77618862	0.13224134	0.15183947
5314	53.13000000	-0.93379218	-0.13310097	-0.05772571	-0.66371624	0.11509940	-0.63935262	-0.59054965	-0.53663143	-0.08527747	-0.71786487	-0.28413892	0.29896054	-0.13321624	0.74572786	-0.33931039	-0.69769097	-0.00191861	0.14816774	-0.64699852	-0.24039928	-0.41811864	-0.78381444	0.12534541	0.12437319
5315	53.14000000	-0.93299591	-0.13320154	-0.05853161	-0.65834090	0.10877904	-0.64402937	-0.58593654	-0.53812625	-0.09789185	-0.71916016	-0.29084980	0.29292105	-0.15398893	0.73405312	-0.34034982	-0.70113385	-0.01662474	0.16083833	-0.64689917	-0.24317827	-0.41564100	-0.78943643	0.11065728	0.09283189
5316	53.15000000	-0.93538797	-0.13232278	-0.05227899	-0.65822573	0.10313468	-0.64880066	-0.58083502	-0.54407465	-0.11231773	-0.71684979	-0.30012455	0.29405908	-0.17321974	0.72599059	-0.34571267	-0.70214725	-0.02617196	0.16110305	-0.64304752	-0.24636214	-0.41735765	-0.79958455	0.10132817	0.06622594
5317	53.16000000	-0.93835885	-0.12695377	-0.04964719	-0.65690641	0.10574712	-0.64920085	-0.57479328	-0.54545636	-0.12446812	-0.71444269	-0.30203040	0.29754011	-0.20226586	0.72323190	-0.34503782	-0.71593964	-0.04252970	0.16071643	-0.64374789	-0.24368325	-0.40802739	-0.80154193	0.09300681	0.02943926
5318	53.17000000	-0.94230214	-0.12611194	-0.04398318	-0.65937248	0.10111460	-0.65011657	-0.57808274	-0.55196754	-0.13845413	-0.71497345	-0.31138633	0.29417580	-0.22875524	0.71688547	-0.33314375	-0.71266589	-0.05784044	0.16353010	-0.64328431	-0.25230945	-0.40654163	-0.80518583	0.07486132	-0.00369820
5319	53.18000000	-0.94010680	-0.13199029	-0.04567245	-0.65639213	0.09675075	-0.64921130	-0.56551090	-0.55719422	-0.13794081	-0.71120934	-0.31348137	0.29430364	-0.25222401	0.71094652	-0.32533764	-0.71554897	-0.07105565	0.16768780	-0.64393514	-0.25328970	-0.40794535	-0.80889437	0.06605519	-0.04203780
5320	53.19000000	-0.93649265	-0.13031420	-0.04600888	-0.65250649	0.09600107	-0.65286776	-0.56377626	-0.55673793	-0.13171629	-0.71105700	-0.31962606	0.29356249	-0.28613670	0.69910802	-0.31357119	-0.71518214	-0.08038223	0.16335874	-0.64121042	-0.24772130	-0.40600226	-0.80353407	0.05041568	-0.07968554
5321	53.20000000	-0.93756108	-0.12872596	-0.04142932	-0.65714033	0.09292881	-0.64955332	-0.56121521	-0.56677364	-0.12912037	-0.70848756	-0.32448268	0.28543249	-0.31915679	0.68815018	-0.30620674	-0.71908856	-0.09350246	0.16374973	-0.63444758	-0.25068713	-0.40564647	-0.80428080	0.03787133	-0.11294652
5322	53.21000000	-0.94004321	-0.12897187	-0.03995315	-0.65489669	0.09508013	-0.65229340	-0.55063870	-0.56850747	-0.12504937	-0.70589373	-0.33237398	0.28868973	-0.35034845	0.67703649	-0.29479160	-0.71496856	-0.10371060	0.16122247	-0.63869178	-0.25166037	-0.40333966	-0.79718294	0.02535642	-0.15232523
